# xmcd
#
# Track frame offsets:
#	150
#	14568
#	32061
#	45716
#	63487
#	82976
#	98843
#	114219
#	132657
#	145931
#	160043
#	177845
#	193611
#	212436
#	231671
#
# Disc length: 3239 seconds
# Revision: 0
# Processed by: cddbd v1.5.2PL0 Copyright (c) Steve Scherf et al.
# Submitted via: dBpowerAMP V12.0
#
DISCID=cd0ca50f
DTITLE=Gary Fjellgaard - The Collection: Solo Acoustic
DYEAR=2011
DGENRE=Folk
TTITLE0=Heroes
TTITLE1=BuckskinJacket
TTITLE2=Reins of Glory
TTITLE3=Streets of Laredo
TTITLE4=Falcon and the Cowboy
TTITLE5=Sweet Nellie
TTITLE6=Color of Your Collar
TTITLE7=Caragana Wind
TTITLE8=Zane Grey
TTITLE9=Dance With This Old Cowboy
TTITLE10=Fever
TTITLE11=Ten Years Old and Barefoot
TTITLE12=Drifting Cowboy
TTITLE13=Cowboy in Your Heart
TTITLE14=Last Hurrah
EXTD=
EXTT0=
EXTT1=
EXTT2=
EXTT3=
EXTT4=
EXTT5=
EXTT6=
EXTT7=
EXTT8=
EXTT9=
EXTT10=
EXTT11=
EXTT12=
EXTT13=
EXTT14=
PLAYORDER=
